<svg width="55" height="55" viewBox="0 0 55 55" fill="none" xmlns="http://www.w3.org/2000/svg">
<mask id="mask0_7_30" style="mask-type:luminance" maskUnits="userSpaceOnUse" x="7" y="8" width="44" height="41">
<path d="M7.28516 8.24771H50.8933V48.1777H7.28516V8.24771Z" fill="white"/>
</mask>
<g mask="url(#mask0_7_30)">
<path d="M49.921 16.571H20.7344L19.7799 12.5045C19.1995 10.0318 17.0219 8.305 14.4838 8.305H9.59C9.44963 8.27062 9.30526 8.24771 9.15458 8.24771C8.13421 8.24771 7.3075 9.07672 7.3075 10.0988C7.3075 11.1215 8.13421 11.9499 9.15458 11.9499C10.1245 11.9499 10.9111 11.1982 10.9873 10.246H14.4838C16.1184 10.246 17.5215 11.3575 17.8944 12.9491L19.015 17.722C19.0179 17.7364 19.0219 17.7501 19.0248 17.7639L20.4095 23.662C20.4118 23.6729 20.4147 23.6827 20.417 23.6924L21.804 29.6026C21.8057 29.6089 21.8069 29.6146 21.8086 29.6204L23.1991 35.5432C23.1991 35.5449 23.1996 35.546 23.2002 35.5478L23.8052 38.1259C24.2658 40.0876 25.7382 41.5748 27.595 42.0985C27.0238 42.7442 26.6738 43.5904 26.6738 44.5191C26.6738 46.5363 28.3112 48.1771 30.3244 48.1771C32.3371 48.1771 33.975 46.5363 33.975 44.5191C33.975 43.6866 33.6932 42.9212 33.224 42.3059H40.7905C40.3218 42.9212 40.0399 43.6866 40.0399 44.5191C40.0399 46.5363 41.6773 48.1771 43.69 48.1771C45.7032 48.1771 47.3406 46.5363 47.3406 44.5191C47.3406 43.6866 47.0587 42.9212 46.5895 42.3059H47.0507C47.5858 42.3059 48.0195 41.871 48.0195 41.3354C48.0195 40.7991 47.5858 40.3648 47.0507 40.3648H29.076C27.4541 40.3648 26.0619 39.2608 25.6907 37.6813L25.371 36.3195H45.4322C45.8757 36.3195 46.2624 36.0176 46.3712 35.5867L50.8601 17.7787C50.9334 17.4889 50.8692 17.1812 50.6853 16.9452C50.5014 16.7097 50.2195 16.571 49.921 16.571ZM43.69 46.2367C42.7453 46.2367 41.9764 45.4661 41.9764 44.5196C41.9764 43.5732 42.7453 42.8026 43.69 42.8026C44.6347 42.8026 45.4036 43.5726 45.4036 44.5196C45.4036 45.4661 44.6347 46.2367 43.69 46.2367ZM30.3244 46.2367C29.3791 46.2367 28.6108 45.4661 28.6108 44.5196C28.6108 43.5732 29.3791 42.8026 30.3244 42.8026C31.2692 42.8026 32.0374 43.5726 32.0374 44.5196C32.038 45.4661 31.2692 46.2367 30.3244 46.2367ZM47.6706 22.5076H42.7619L43.2827 18.5121H48.6778L47.6706 22.5076ZM46.1742 28.443H41.9879L42.5086 24.4481H47.1814L46.1742 28.443ZM22.5837 24.4481H27.261L27.7131 28.443H23.5216L22.5837 24.4481ZM29.2101 24.4481H33.9155L33.8805 28.443H29.6621L29.2101 24.4481ZM33.9321 22.5076H28.9907L28.5386 18.5121H33.9665L33.9321 22.5076ZM35.9035 18.5121H41.329L40.8082 22.5076H35.8691L35.9035 18.5121ZM33.8639 30.3841L33.8295 34.379H30.3336L29.8816 30.3841H33.8639ZM35.8009 30.3841H39.7816L39.2608 34.379H35.7666L35.8009 30.3841ZM35.8181 28.443L35.8525 24.4481H40.555L40.0342 28.443H35.8181ZM26.5896 18.5121L27.0416 22.5076H22.1283L21.1904 18.5121H26.5896ZM23.9777 30.3841H27.9325L28.3845 34.379H24.9155L23.9777 30.3841ZM44.6777 34.379H41.2139L41.7346 30.3841H45.6849L44.6777 34.379Z" fill="#2A6B98"/>
</g>
</svg>
