<svg width="261" height="47" viewBox="0 0 261 47" fill="none" xmlns="http://www.w3.org/2000/svg">
<path d="M22.5157 33.5396V12.0571C22.5157 11.6085 22.6733 11.2231 22.9884 10.9011C23.3036 10.579 23.6886 10.4179 24.1439 10.4179H46.8662C47.3213 10.4179 47.7065 10.579 48.0217 10.9011C48.3485 11.2231 48.5118 11.6085 48.5118 12.0571V33.5396C48.5118 33.9882 48.3425 34.3736 48.0041 34.6957C47.6773 35.0063 47.2864 35.1617 46.8312 35.1617H43.5752C43.12 35.1617 42.7291 35.0063 42.4023 34.6957C42.0755 34.3736 41.9122 33.9882 41.9122 33.5396V15.3011H29.1155V33.5396C29.1155 33.9882 28.952 34.3736 28.6254 34.6957C28.3103 35.0063 27.925 35.1617 27.4699 35.1617H24.1789C23.7238 35.1617 23.3328 35.0063 23.006 34.6957C22.6792 34.3736 22.5157 33.9882 22.5157 33.5396ZM56.9824 33.0221C55.1619 31.3656 54.2516 28.9269 54.2516 25.7058C54.2516 22.4734 55.1619 20.0347 56.9824 18.3897C58.803 16.7333 61.4171 15.905 64.825 15.905C68.2443 15.905 70.8644 16.7333 72.6851 18.3897C74.5056 20.0347 75.4159 22.4734 75.4159 25.7058C75.4159 28.9269 74.5056 31.3656 72.6851 33.0221C70.8644 34.6786 68.2443 35.5067 64.825 35.5067C61.4171 35.5067 58.803 34.6786 56.9824 33.0221ZM61.4114 21.2196C60.6877 22.1513 60.326 23.641 60.326 25.6887C60.326 27.7362 60.6877 29.2317 61.4114 30.1749C62.1348 31.1182 63.2728 31.5898 64.825 31.5898C66.3888 31.5898 67.5325 31.1182 68.2562 30.1749C68.9913 29.2317 69.359 27.7362 69.359 25.6887C69.359 23.641 68.9913 22.1513 68.2562 21.2196C67.5325 20.2877 66.3888 19.822 64.825 19.822C63.2728 19.822 62.1348 20.2877 61.4114 21.2196ZM80.8055 34.1091V17.3199C80.8055 17.0093 80.9048 16.7563 81.1032 16.5607C81.3131 16.3537 81.57 16.2501 81.8733 16.2501H85.5322C85.8471 16.2501 86.104 16.3537 86.3023 16.5607C86.5124 16.7563 86.6174 17.0093 86.6174 17.3199V28.6566L92.7794 17.4925C92.9662 17.1359 93.2521 16.8425 93.6372 16.6125C94.0224 16.3709 94.3958 16.2501 94.7575 16.2501H99.6592C99.9743 16.2501 100.231 16.3537 100.429 16.5607C100.64 16.7563 100.745 17.0093 100.745 17.3199V34.1091C100.745 34.4197 100.64 34.6727 100.429 34.8683C100.231 35.0639 99.9743 35.1617 99.6592 35.1617H96.0005C95.6854 35.1617 95.4287 35.0639 95.2302 34.8683C95.0318 34.6613 94.9327 34.4082 94.9327 34.1091V22.7897L88.7707 33.9193C88.5839 34.2529 88.2979 34.5462 87.9129 34.7993C87.5277 35.0408 87.1543 35.1617 86.7925 35.1617H81.8733C81.5584 35.1617 81.3015 35.0639 81.1032 34.8683C80.9048 34.6727 80.8055 34.4197 80.8055 34.1091ZM106.099 21.4785C106.099 17.7628 109.139 15.905 115.22 15.905C121.615 15.905 124.813 17.5558 124.813 20.8572C124.813 21.1564 124.714 21.4094 124.515 21.6165C124.317 21.8121 124.06 21.9098 123.745 21.9098H121.137C120.296 21.9098 119.59 21.5647 119.018 20.8745C118.446 20.1727 117.32 19.822 115.64 19.822C113.329 19.822 112.174 20.3741 112.174 21.4785C112.174 21.996 112.623 22.4275 113.522 22.7726C114.432 23.1176 115.535 23.4224 116.83 23.6871C118.137 23.9401 119.439 24.2679 120.734 24.6706C122.029 25.0733 123.126 25.7173 124.025 26.6031C124.935 27.4773 125.39 28.5875 125.39 29.9333C125.39 33.649 122.181 35.5067 115.762 35.5067C109.344 35.5067 106.134 33.8617 106.134 30.5717C106.134 30.2613 106.233 30.0081 106.432 29.8127C106.642 29.6056 106.904 29.502 107.22 29.502H109.828C110.668 29.502 111.374 29.8528 111.946 30.5546C112.518 31.2448 113.644 31.5898 115.325 31.5898C117.997 31.5898 119.333 31.0377 119.333 29.9333C119.333 29.4156 118.878 28.9843 117.968 28.6393C117.069 28.2942 115.966 27.9894 114.659 27.7247C113.352 27.4487 112.051 27.1151 110.756 26.7239C109.472 26.3212 108.375 25.6772 107.465 24.7914C106.554 23.9057 106.099 22.8014 106.099 21.4785ZM140.076 35.5067C136.808 35.5067 134.264 34.6786 132.443 33.0221C130.623 31.3656 129.712 28.9326 129.712 25.7231C129.712 22.5022 130.617 20.0635 132.426 18.407C134.234 16.739 136.749 15.905 139.971 15.905C143.203 15.905 145.683 16.4112 147.411 17.4235C149.149 18.4358 150.019 19.9312 150.019 21.9098C150.019 22.2204 149.914 22.4734 149.704 22.669C149.505 22.8646 149.249 22.9623 148.933 22.9623H146.325C145.532 22.9623 144.861 22.5425 144.312 21.7027C143.624 20.6213 142.404 20.0807 140.653 20.0807C138.914 20.0807 137.695 20.5236 136.995 21.4094C136.306 22.2837 135.962 23.7157 135.962 25.7058C135.962 27.6959 136.318 29.1338 137.03 30.0196C137.753 30.9053 139.002 31.3483 140.776 31.3483C142.561 31.3483 143.798 30.8076 144.487 29.7263C145.036 28.8751 145.707 28.4495 146.5 28.4495H149.109C149.424 28.4495 149.68 28.553 149.879 28.7601C150.089 28.9555 150.194 29.2029 150.194 29.502C150.194 31.4806 149.324 32.976 147.585 33.9882C145.858 35.0007 143.355 35.5067 140.076 35.5067ZM155.216 34.1091V11.4877C155.216 11.1771 155.315 10.9241 155.514 10.7285C155.724 10.5214 155.98 10.4179 156.284 10.4179H160.205C160.509 10.4179 160.759 10.5214 160.958 10.7285C161.168 10.9241 161.273 11.1771 161.273 11.4877V18.407C163.28 16.739 165.416 15.905 167.68 15.905C169.956 15.905 171.805 16.5895 173.229 17.9584C174.653 19.3158 175.365 21.3979 175.365 24.2046V34.1091C175.365 34.4082 175.26 34.6613 175.05 34.8683C174.852 35.0639 174.595 35.1617 174.28 35.1617H170.376C170.073 35.1617 169.816 35.0639 169.606 34.8683C169.407 34.6613 169.308 34.4082 169.308 34.1091V24.2046C169.308 21.4553 168.194 20.0807 165.964 20.0807C164.506 20.0807 162.942 20.9032 161.273 22.5482V34.1091C161.273 34.4082 161.168 34.6613 160.958 34.8683C160.759 35.0639 160.509 35.1617 160.205 35.1617H156.284C155.98 35.1617 155.724 35.0639 155.514 34.8683C155.315 34.6613 155.216 34.4082 155.216 34.1091ZM183.485 33.0221C181.666 31.3656 180.755 28.9269 180.755 25.7058C180.755 22.4734 181.666 20.0347 183.485 18.3897C185.306 16.7333 187.92 15.905 191.328 15.905C194.748 15.905 197.367 16.7333 199.188 18.3897C201.009 20.0347 201.918 22.4734 201.918 25.7058C201.918 28.9269 201.009 31.3656 199.188 33.0221C197.367 34.6786 194.748 35.5067 191.328 35.5067C187.92 35.5067 185.306 34.6786 183.485 33.0221ZM187.915 21.2196C187.19 22.1513 186.828 23.641 186.828 25.6887C186.828 27.7362 187.19 29.2317 187.915 30.1749C188.639 31.1182 189.775 31.5898 191.328 31.5898C192.893 31.5898 194.036 31.1182 194.759 30.1749C195.494 29.2317 195.861 27.7362 195.861 25.6887C195.861 23.641 195.494 22.1513 194.759 21.2196C194.036 20.2877 192.893 19.822 191.328 19.822C189.775 19.822 188.639 20.2877 187.915 21.2196ZM208.954 33.0221C207.133 31.3656 206.224 28.9269 206.224 25.7058C206.224 22.4734 207.133 20.0347 208.954 18.3897C210.775 16.7333 213.389 15.905 216.797 15.905C220.217 15.905 222.836 16.7333 224.657 18.3897C226.477 20.0347 227.387 22.4734 227.387 25.7058C227.387 28.9269 226.477 31.3656 224.657 33.0221C222.836 34.6786 220.217 35.5067 216.797 35.5067C213.389 35.5067 210.775 34.6786 208.954 33.0221ZM213.384 21.2196C212.659 22.1513 212.297 23.641 212.297 25.6887C212.297 27.7362 212.659 29.2317 213.384 30.1749C214.106 31.1182 215.244 31.5898 216.797 31.5898C218.36 31.5898 219.504 31.1182 220.228 30.1749C220.963 29.2317 221.33 27.7362 221.33 25.6887C221.33 23.641 220.963 22.1513 220.228 21.2196C219.504 20.2877 218.36 19.822 216.797 19.822C215.244 19.822 214.106 20.2877 213.384 21.2196ZM232.778 34.1091V11.4877C232.778 11.1771 232.876 10.9241 233.075 10.7285C233.285 10.5214 233.541 10.4179 233.846 10.4179H237.766C238.069 10.4179 238.32 10.5214 238.519 10.7285C238.729 10.9241 238.835 11.1771 238.835 11.4877V34.1091C238.835 34.4082 238.729 34.6613 238.519 34.8683C238.32 35.0639 238.069 35.1617 237.766 35.1617H233.846C233.541 35.1617 233.285 35.0639 233.075 34.8683C232.876 34.6613 232.778 34.4082 232.778 34.1091Z" fill="#4285B4"/>
<path d="M69.9016 30.5236L68.8986 30.9498C67.8076 31.4133 67.3044 32.6609 67.7747 33.7362L72.69 44.9748C73.1603 46.0502 74.4259 46.5461 75.5169 46.0826L76.5199 45.6564C77.6109 45.1928 78.114 43.9452 77.6437 42.8699L72.7285 31.6313C72.2582 30.5559 70.9925 30.06 69.9016 30.5236Z" fill="#4285B4"/>
<path d="M75.6199 40.913C75.4467 40.5178 74.9813 40.3359 74.5803 40.5066C74.1794 40.6774 73.9948 41.1361 74.168 41.5313L75.1382 43.7446C75.3114 44.1397 75.7768 44.3217 76.1778 44.1509C76.5787 43.9802 76.7633 43.5214 76.59 43.1262L75.6199 40.913Z" fill="#2A6B98"/>
</svg>
