<svg width="28" height="28" viewBox="0 0 28 28" fill="none" xmlns="http://www.w3.org/2000/svg">
<path d="M0.270306 26.4059C0.401379 26.2766 0.567823 26.189 0.748637 26.1542C0.929451 26.1193 1.11653 26.1388 1.28627 26.2102C1.40069 26.2546 1.50522 26.3211 1.59386 26.4059C1.68025 26.493 1.74859 26.5963 1.79498 26.7099C1.84136 26.8234 1.86487 26.945 1.86416 27.0677C1.86487 27.1904 1.84136 27.312 1.79498 27.4255C1.74859 27.5391 1.68025 27.6424 1.59386 27.7295C1.50326 27.8118 1.39923 27.878 1.28627 27.9252C1.1747 27.9745 1.05407 28 0.932083 28C0.810101 28 0.689464 27.9745 0.577894 27.9252C0.462226 27.8834 0.357177 27.8166 0.270196 27.7296C0.183215 27.6426 0.11643 27.5376 0.0745683 27.4219C0.0268075 27.3098 0.00147315 27.1895 4.76837e-07 27.0677C0.00343379 26.8209 0.099983 26.5846 0.270306 26.4059ZM4.93071 21.7456C5.10902 21.5929 5.33838 21.5131 5.57297 21.5221C5.80755 21.5312 6.03008 21.6284 6.19607 21.7944C6.36207 21.9604 6.45932 22.183 6.46838 22.4175C6.47744 22.6521 6.39765 22.8815 6.24495 23.0598L4.38079 24.9239C4.20248 25.0766 3.97311 25.1564 3.73853 25.1474C3.50395 25.1383 3.28142 25.0411 3.11543 24.8751C2.94943 24.7091 2.85218 24.4865 2.84312 24.252C2.83406 24.0174 2.91385 23.788 3.06655 23.6097L4.93071 21.7456ZM10.6351 16.0506C9.03001 14.1078 8.23459 11.6216 8.41383 9.10799C8.59308 6.59435 9.73322 4.24621 11.5977 2.55082C13.4622 0.855438 15.9078 -0.0570289 18.4272 0.00276337C20.9465 0.0625557 23.3461 1.09002 25.128 2.87195C26.91 4.65387 27.9374 7.05346 27.9972 9.57277C28.057 12.0921 27.1446 14.5377 25.4492 16.4022C23.7538 18.2666 21.4056 19.4068 18.8919 19.586C16.3783 19.7653 13.8921 18.9698 11.9493 17.3648L9.05051 20.2636C8.8722 20.4163 8.64284 20.4961 8.40826 20.487C8.17368 20.4779 7.95115 20.3807 7.78515 20.2147C7.61916 20.0487 7.52191 19.8262 7.51285 19.5916C7.50379 19.357 7.58358 19.1276 7.73628 18.9493L10.6351 16.0506ZM18.1756 17.747C19.7426 17.747 21.2743 17.2823 22.5772 16.4118C23.8801 15.5412 24.8956 14.3039 25.4952 12.8562C26.0949 11.4085 26.2518 9.81554 25.9461 8.2787C25.6404 6.74186 24.8858 5.33018 23.7778 4.22218C22.6698 3.11418 21.2581 2.35962 19.7212 2.05393C18.1844 1.74823 16.5914 1.90513 15.1437 2.50477C13.696 3.10442 12.4587 4.11988 11.5881 5.42275C10.7176 6.72562 10.2529 8.25738 10.2529 9.82433C10.2554 11.9248 11.0909 13.9385 12.5761 15.4238C14.0614 16.909 16.0751 17.7445 18.1756 17.747Z" fill="#07387E"/>
</svg>
